<svg xmlns="http://www.w3.org/2000/svg" xmlns:xlink="http://www.w3.org/1999/xlink" width="38" height="38" viewBox="0 0 38 38">
  <defs>
    <radialGradient id="radial-gradient" cx="0.225" cy="0.081" r="1.189" gradientTransform="translate(0.091) scale(0.818 1)" gradientUnits="objectBoundingBox">
      <stop offset="0" stop-color="#fff" stop-opacity="0.102"/>
      <stop offset="1" stop-color="#fff" stop-opacity="0"/>
    </radialGradient>
  </defs>
  <g id="google_news" transform="translate(4093 -138.263)">
    <rect id="Retângulo_4824" data-name="Retângulo 4824" width="38" height="38" rx="19" transform="translate(-4093 138.263)" fill="#139933" opacity="0"/>
    <g id="Google_News_icon" transform="translate(-4086.148 147.523)">
      <path id="Caminho_362" data-name="Caminho 362" d="M1354.708,14.229a.646.646,0,0,1-.639.649h-13.53a.646.646,0,0,1-.639-.649V.649a.646.646,0,0,1,.639-.649h13.53a.646.646,0,0,1,.639.649v13.58Z" transform="translate(-1334.656 0)" fill="#0c9d58"/>
      <path id="Caminho_363" data-name="Caminho 363" d="M3890.487,722.068l-5.187-.668,5.187,1.392Z" transform="translate(-3870.348 -718.577)" fill="#004d40" opacity="0.2"/>
      <path id="Caminho_364" data-name="Caminho 364" d="M1339.856,167.538,1332,171.046l8.682-3.16v-.009A.634.634,0,0,0,1339.856,167.538Z" transform="translate(-1326.892 -166.83)" fill="#004d40" opacity="0.2"/>
      <path id="Caminho_365" data-name="Caminho 365" d="M1354.069,0h-13.53a.646.646,0,0,0-.639.649V.795a.646.646,0,0,1,.639-.649h13.53a.646.646,0,0,1,.639.649V.649A.647.647,0,0,0,1354.069,0Z" transform="translate(-1334.656 0)" fill="#fff" opacity="0.2"/>
      <path id="Caminho_366" data-name="Caminho 366" d="M2192.056,533.649a.611.611,0,0,0,.415.766l12.821,3.341a.635.635,0,0,0,.754-.463l3.02-10.921a.611.611,0,0,0-.415-.766l-12.82-3.341a.635.635,0,0,0-.754.463Z" transform="translate(-2183.794 -520.203)" fill="#ea4335"/>
      <path id="Caminho_367" data-name="Caminho 367" d="M5806.4,2638.1l.674,4.1-.674,2.518Z" transform="translate(-5784.018 -2628.134)" fill="#3e2723" opacity="0.2"/>
      <path id="Caminho_368" data-name="Caminho 368" d="M3900.8,764.1l.6.162.375,2.528Z" transform="translate(-3885.744 -761.109)" fill="#3e2723" opacity="0.2"/>
      <path id="Caminho_369" data-name="Caminho 369" d="M2212.4,525.713l-12.821-3.448a.634.634,0,0,0-.754.477l-3.02,11.271c-.005.019-.006.038-.01.057l3-11.186a.634.634,0,0,1,.754-.477l12.821,3.448a.628.628,0,0,1,.425.734l.023-.086A.634.634,0,0,0,2212.4,525.713Z" transform="translate(-2187.548 -520.203)" fill="#fff" opacity="0.2"/>
      <path id="Caminho_370" data-name="Caminho 370" d="M18.772,270.369a.61.61,0,0,1-.344.8L4.9,275.951a.638.638,0,0,1-.793-.4L.114,264.9a.61.61,0,0,1,.344-.8l13.529-4.781a.638.638,0,0,1,.793.4Z" transform="translate(-0.072 -258.276)" fill="#ffc107"/>
      <path id="Caminho_371" data-name="Caminho 371" d="M.112,265.111a.635.635,0,0,1,.344-.824l13.529-4.924a.633.633,0,0,1,.789.4l-.047-.128a.634.634,0,0,0-.793-.41L.405,264.149a.634.634,0,0,0-.344.824l3.991,10.965s0,.007.005.011Z" transform="translate(-0.018 -258.177)" fill="#fff" opacity="0.2"/>
      <path id="Caminho_372" data-name="Caminho 372" d="M763.87,1466.24a.652.652,0,0,1-.644.656H745.044a.652.652,0,0,1-.645-.656v-13.984a.652.652,0,0,1,.645-.655h18.181a.652.652,0,0,1,.644.655Z" transform="translate(-741.486 -1446.417)" fill="#4285f4"/>
      <path id="Caminho_373" data-name="Caminho 373" d="M3494.935,2495.257H3489.4V2493.8h5.536a.292.292,0,0,1,.292.291v.874A.292.292,0,0,1,3494.935,2495.257Zm0,5.535H3489.4v-1.456h5.536a.291.291,0,0,1,.292.291v.874A.291.291,0,0,1,3494.935,2500.792Zm.874-2.767h-6.41v-1.457h6.41a.291.291,0,0,1,.291.292v.874A.291.291,0,0,1,3495.809,2498.024Z" transform="translate(-3475.989 -2484.388)" fill="#fff"/>
      <path id="Caminho_374" data-name="Caminho 374" d="M763.225,5155.655H745.044a.653.653,0,0,1-.645-.656v.146a.652.652,0,0,0,.645.655h18.181a.652.652,0,0,0,.644-.655V5155A.652.652,0,0,1,763.225,5155.655Z" transform="translate(-741.486 -5135.322)" fill="#1a237e" opacity="0.2"/>
      <path id="Caminho_375" data-name="Caminho 375" d="M745.044,1451.746h18.181a.652.652,0,0,1,.644.656v-.146a.652.652,0,0,0-.644-.656H745.044a.652.652,0,0,0-.645.656v.146A.652.652,0,0,1,745.044,1451.746Z" transform="translate(-741.486 -1446.059)" fill="#fff" opacity="0.2"/>
      <path id="Caminho_376" data-name="Caminho 376" d="M1334,2496.714v1.314h1.885a1.781,1.781,0,0,1-1.885,1.381,2.113,2.113,0,0,1,0-4.225,1.9,1.9,0,0,1,1.341.524h0l1-1a3.357,3.357,0,0,0-2.339-.911,3.5,3.5,0,1,0,0,6.992,3.218,3.218,0,0,0,3.347-3.416,4.156,4.156,0,0,0-.055-.662Z" transform="translate(-1325.387 -2484.388)" fill="#fff"/>
      <g id="Grupo_663" data-name="Grupo 663" transform="translate(5.149 10.317)" opacity="0.2">
        <path id="Caminho_377" data-name="Caminho 377" d="M2233.2,3573.9v.146h1.85c.014-.048.025-.1.035-.146Z" transform="translate(-2229.704 -3570.59)" fill="#1a237e"/>
        <path id="Caminho_378" data-name="Caminho 378" d="M1343.4,2734.175a3.5,3.5,0,0,1-3.494-3.423c0,.024,0,.049,0,.073a3.5,3.5,0,0,0,3.5,3.5,3.218,3.218,0,0,0,3.348-3.416c0-.016,0-.031,0-.047A3.207,3.207,0,0,1,1343.4,2734.175Zm1.341-5.084a1.9,1.9,0,0,0-1.341-.525,2.107,2.107,0,0,0-2.072,2.112c0,.024,0,.049,0,.073a2.1,2.1,0,0,1,2.069-2.039,1.9,1.9,0,0,1,1.341.524h0l1.071-1.07c-.025-.024-.053-.044-.079-.067l-.991.992Z" transform="translate(-1339.9 -2728.1)" fill="#1a237e"/>
      </g>
      <path id="Caminho_379" data-name="Caminho 379" d="M3495.227,2791.646v-.146a.291.291,0,0,1-.292.291H3489.4v.146h5.536A.291.291,0,0,0,3495.227,2791.646Zm-.292,5.681H3489.4v.145h5.536a.292.292,0,0,0,.292-.291v-.146A.292.292,0,0,1,3494.935,2797.327Zm.874-2.768h-6.41v.146h6.41a.291.291,0,0,0,.291-.291v-.146A.291.291,0,0,1,3495.809,2794.559Z" transform="translate(-3475.989 -2780.937)" fill="#1a237e" opacity="0.2"/>
      <path id="Caminho_380" data-name="Caminho 380" d="M24.881,5.38,20.14,4.118V.634A.642.642,0,0,0,19.5,0H5.837a.642.642,0,0,0-.645.634V4.1L.4,5.83a.617.617,0,0,0-.34.8l2.832,7.7v5.5a.645.645,0,0,0,.647.64H21.793a.645.645,0,0,0,.647-.64V16.679L25.291,6.152a.618.618,0,0,0-.41-.772Z" transform="translate(-0.018 0)" fill="url(#radial-gradient)"/>
    </g>
  </g>
</svg>
