<svg xmlns="http://www.w3.org/2000/svg" width="42" height="42" viewBox="0 0 42 42">
  <g id="horoscopo_10" data-name="horoscopo 10" transform="translate(-386 -7058)">
    <rect id="Retângulo_4924" data-name="Retângulo 4924" width="42" height="42" transform="translate(386 7058)" fill="#8d1082" opacity="0"/>
    <g id="OBJECTS" transform="translate(392 7062)">
      <g id="Grupo_298" data-name="Grupo 298" transform="translate(0 0)">
        <path id="Caminho_549" data-name="Caminho 549" d="M28.511.02C28.265,0,22.478-.347,18.5,3.4c-2.256,2.125-3.451,5.127-3.562,8.922q-.2-.01-.405-.01t-.405.01c-.111-3.8-1.306-6.8-3.562-8.922C6.585-.347.8,0,.553.02A.6.6,0,0,0,.49,1.209C.584,1.226,9.6,2.925,9.766,13.926a8.421,8.421,0,0,0-.818.716c-1.774-2.6-4.989-2.677-6.556-2.314a.6.6,0,0,0-.461.615c.17,3.366,3,4.872,4.937,5.326a8.038,8.038,0,0,0-.26,2.034v3.121A8.058,8.058,0,0,0,11.3,30.719a3.233,3.233,0,0,0,6.466,0,8.044,8.044,0,0,0,4.688-7.294V20.3a8.03,8.03,0,0,0-.256-2.013c1.94-.43,4.858-1.929,5.031-5.347a.6.6,0,0,0-.461-.615c-1.58-.367-4.834-.283-6.6,2.373a7.751,7.751,0,0,0-.88-.776c.156-11.17,8.891-12.655,9.265-12.714a.6.6,0,0,0,.506-.619A.593.593,0,0,0,28.5.02ZM4.575,1.628a11.331,11.331,0,0,1,5.184,2.66c2.034,1.919,3.1,4.676,3.181,8.192a7.876,7.876,0,0,0-2,.709c-.319-6.5-3.6-9.866-6.365-11.561ZM3.179,13.42A4.919,4.919,0,0,1,8.137,15.6a7.965,7.965,0,0,0-.87,1.527c-1.05-.241-3.645-1.094-4.089-3.7Zm8.115,15.957a6.852,6.852,0,0,1-3.5-5.952v-.108a4.388,4.388,0,0,0,3.229,1.426h.267v4.634Zm-3.43-8.465h.229a3.213,3.213,0,0,1,3.146,2.632H11.03A3.244,3.244,0,0,1,7.864,20.913Zm4.622,9.73V28.811l1.452,1.468v.542l-1.313.559a2.1,2.1,0,0,1-.139-.737Zm.994-2.527h2.11l-1.053,1.066-1.053-1.066Zm1.053,4.592a2.025,2.025,0,0,1-1.136-.349l1.136-.486,1.136.486A2.025,2.025,0,0,1,14.533,32.708Zm2.048-2.065a2.025,2.025,0,0,1-.139.741l-1.313-.559v-.542l1.452-1.468v1.831Zm4.685-7.213a6.852,6.852,0,0,1-3.5,5.952V24.746h.343a4.272,4.272,0,0,0,3.15-1.37v.052Zm-3.437.115a3.216,3.216,0,0,1,3.146-2.632h.232a3.141,3.141,0,0,1-3.091,2.632ZM25.985,13.42c-.454,2.715-3.188,3.523-4.179,3.726a8.24,8.24,0,0,0-.825-1.471,4.91,4.91,0,0,1,5-2.258ZM21.238,19.71h-.263a4.42,4.42,0,0,0-4.4,4.435v2.873a.949.949,0,0,0-.43-.1H12.912a1,1,0,0,0-.43.1V24.145a4.42,4.42,0,0,0-4.4-4.435H7.822a6.726,6.726,0,0,1,13.409,0Zm-3.115-6.521a7.851,7.851,0,0,0-2-.709c.083-3.516,1.15-6.273,3.181-8.192a11.237,11.237,0,0,1,5-2.614C21.578,3.368,18.428,6.716,18.123,13.189Z" transform="translate(0.003 -0.004)" fill="#8d1082"/>
      </g>
    </g>
  </g>
</svg>
