<svg xmlns="http://www.w3.org/2000/svg" width="42" height="42" viewBox="0 0 42 42">
  <g id="horoscopo_12" data-name="horoscopo 12" transform="translate(-381 -6908)" style="isolation: isolate">
    <rect id="Retângulo_4916" data-name="Retângulo 4916" width="42" height="42" transform="translate(381 6908)" fill="#101010" opacity="0"/>
    <g id="OBJECTS" transform="translate(384 6912)">
      <g id="Grupo_319" data-name="Grupo 319" transform="translate(0 0)">
        <g id="Grupo_317" data-name="Grupo 317">
          <path id="Caminho_560" data-name="Caminho 560" d="M44.787,51.471a.66.66,0,0,0-.406-1.181H38.6a.664.664,0,0,0-.625.445.654.654,0,0,0,.215.732l2.626,2.074V55.17L38.45,56.316a.66.66,0,0,0,.288,1.254.7.7,0,0,0,.288-.065l2.457-1.192,2.484,1.1A.66.66,0,1,0,44.5,56.2L42.13,55.155v-1.61l2.657-2.074Z" transform="translate(-23.445 -32.839)" fill="#101010"/>
          <path id="Caminho_561" data-name="Caminho 561" d="M36.18,42.982a.659.659,0,0,0,.18-1.292l-2.538-.721a.658.658,0,1,0-.36,1.265L36,42.955A.76.76,0,0,0,36.18,42.982Z" transform="translate(-20.709 -27.672)" fill="#101010"/>
          <path id="Caminho_562" data-name="Caminho 562" d="M54.165,40.959l-2.683.763a.659.659,0,0,0,.18,1.292.587.587,0,0,0,.18-.027l2.683-.763a.658.658,0,0,0-.36-1.265Z" transform="translate(-31.192 -27.665)" fill="#101010"/>
          <path id="Caminho_563" data-name="Caminho 563" d="M34.745,25.6c-5.917,0-9.595,3.062-9.595,7.985A9.454,9.454,0,0,0,29.2,41.323v2.741a3.336,3.336,0,0,0,3.371,3.291h4.68a3.334,3.334,0,0,0,3.371-3.282l.022-2.737a9.455,9.455,0,0,0,4.063-7.747c0-4.85-3.912-7.985-9.967-7.985ZM39.5,40.3a.732.732,0,0,0-.373.632L39.1,44.064a1.825,1.825,0,0,1-1.845,1.8h-4.68a1.825,1.825,0,0,1-1.845-1.8V41.046a.743.743,0,0,0-.333-.732,7.994,7.994,0,0,1-3.717-6.734c0-4.066,3.016-6.5,8.069-6.5,4.081,0,8.441,1.706,8.441,6.5A8,8,0,0,1,39.5,40.293Z" transform="translate(-16.89 -19.25)" fill="#101010"/>
          <path id="Caminho_564" data-name="Caminho 564" d="M33.519,13.585l1.635-1.635A.714.714,0,0,0,35,10.821c-.294-.161-7.134-3.857-13.354-.12-6.22-3.737-13.056-.041-13.35.12a.714.714,0,0,0-.157,1.13l1.635,1.635C2.96,17.342,3.6,22.8,3.63,23.045a.71.71,0,0,0,.7.617H6.982A14.746,14.746,0,0,0,8.12,33.791c2.235,4.287,6.712,7.358,13.316,9.125a.711.711,0,0,0,.372,0c6.6-1.771,11.09-4.842,13.329-9.129A14.77,14.77,0,0,0,36.3,23.661h2.653a.71.71,0,0,0,.7-.617c.033-.24.675-5.7-6.137-9.456Zm1.837,8.653a.711.711,0,0,0-.67.952,13.511,13.511,0,0,1-.807,9.936c-2.028,3.882-6.149,6.7-12.253,8.363-6.091-1.664-10.2-4.473-12.228-8.342a13.57,13.57,0,0,1-.8-9.956.711.711,0,0,0-.67-.952h-2.9c.062-1.465.79-5.185,6.244-7.825a.709.709,0,0,0,.194-1.142L9.862,11.665c1.99-.828,7.006-2.4,11.392.476a.716.716,0,0,0,.778,0c4.386-2.876,9.406-1.3,11.392-.476L31.819,13.27a.716.716,0,0,0-.2.621.708.708,0,0,0,.393.521c5.454,2.64,6.182,6.364,6.244,7.825h-2.9Z" transform="translate(-3.602 -9.035)" fill="#101010"/>
        </g>
      </g>
    </g>
  </g>
</svg>
