<svg xmlns="http://www.w3.org/2000/svg" width="42" height="42" viewBox="0 0 42 42">
  <g id="horoscopo_7" data-name="horoscopo 7" transform="translate(-309 -7054)" style="isolation: isolate">
    <rect id="Retângulo_4923" data-name="Retângulo 4923" width="42" height="42" transform="translate(309 7054)" fill="#101010" opacity="0"/>
    <g id="OBJECTS" transform="translate(309 7060)">
      <g id="Grupo_292" data-name="Grupo 292" transform="translate(0 0)">
        <g id="Grupo_291" data-name="Grupo 291">
          <path id="Caminho_536" data-name="Caminho 536" d="M51.261,18.76a.852.852,0,0,0-.851.851v13.46a.851.851,0,0,0,1.7,0V19.611A.852.852,0,0,0,51.261,18.76Z" transform="translate(-30.078 -13.735)" fill="#101010"/>
          <path id="Caminho_537" data-name="Caminho 537" d="M32.927,8.554a9,9,0,0,0-6.269,2.519,11.2,11.2,0,0,0-11.3,0A9,9,0,0,0,9.093,8.554a9.123,9.123,0,0,0-7.6,14.121h0a3.939,3.939,0,1,0,5.286-5.1.708.708,0,0,0-.768.114.7.7,0,0,0-.2.75,2.541,2.541,0,0,1-2.4,3.355,2.571,2.571,0,0,1-.723-.11,4.561,4.561,0,0,1-.028-.526,5.228,5.228,0,0,1,1.568-3.722A4.756,4.756,0,0,1,7.72,16.063a5.16,5.16,0,0,1,2.682.95,11.187,11.187,0,0,0-.662,3.807h0c0,.02,0,.1.008.22a11.375,11.375,0,0,0,7.5,10.464v2.682a3.75,3.75,0,1,0,7.5,0V32.043c.033-.094.061-.183.081-.269a.706.706,0,0,0,0-.306A11.382,11.382,0,0,0,32.265,20.91v-.069a11.231,11.231,0,0,0-.666-3.832,5.16,5.16,0,0,1,2.682-.95,4.742,4.742,0,0,1,3.486,1.374,5.212,5.212,0,0,1,1.568,3.722c0,.175-.012.351-.028.526a2.518,2.518,0,0,1-3.255-2.43,2.577,2.577,0,0,1,.134-.815.7.7,0,0,0-.963-.864,3.946,3.946,0,1,0,5.286,5.1h0a9.123,9.123,0,0,0-7.6-14.121ZM7.309,19.887a2.513,2.513,0,0,1,.345,1.276,2.53,2.53,0,0,1-4.031,2.046,3.947,3.947,0,0,0,3.685-3.318ZM36.893,23.7a2.538,2.538,0,0,1-2.531-2.54,2.565,2.565,0,0,1,.345-1.276,3.951,3.951,0,0,0,3.685,3.318,2.514,2.514,0,0,1-1.5.493ZM7.769,14.657a6.155,6.155,0,0,0-4.51,1.769,6.637,6.637,0,0,0-1.7,2.784A7.707,7.707,0,0,1,9.085,9.969a7.622,7.622,0,0,1,5.432,2.258l.028.029a4.847,4.847,0,0,1,1.5,2.715,2.064,2.064,0,0,1-.589,1.549c-1.284,1.427-1.954.954-3.421-.09a7.651,7.651,0,0,0-4.274-1.773Zm4.148,9.979A11.154,11.154,0,0,0,16.7,26.564a14.526,14.526,0,0,1,.557,3.424,9.973,9.973,0,0,1-5.335-5.352ZM11.3,21.6a5.684,5.684,0,0,1,3.641,1.724,6.931,6.931,0,0,1,1.138,1.655C12.689,24.135,11.629,22.541,11.3,21.6Zm9,14.83a2.357,2.357,0,0,1-1.641-2.242v-.147a3.351,3.351,0,0,0,1.641.844ZM19.2,32.524a9.006,9.006,0,0,0,3.563.22,2.269,2.269,0,0,1-1.751.8A2.133,2.133,0,0,1,19.2,32.524Zm4.157,1.663a2.35,2.35,0,0,1-1.641,2.242V34.889a3.6,3.6,0,0,0,1.641-.77ZM24.87,29.94a14.536,14.536,0,0,1,.455-3.172,9.3,9.3,0,0,0,4.555-1.655,9.971,9.971,0,0,1-5.01,4.831Zm.983-4.676A6.948,6.948,0,0,1,27.1,23.327,5.62,5.62,0,0,1,30.733,21.6c-.313,1.084-1.365,3.021-4.88,3.661Zm.223-2.9c-2.511,2.691-2.641,6.959-2.621,8.279a.7.7,0,0,0-.1.351v.175a7.433,7.433,0,0,1-4.685-.285c.028-.9.028-5.63-2.706-8.528a7.067,7.067,0,0,0-4.786-2.189,9.784,9.784,0,0,1,.439-2.324c1.39.958,2.962,1.777,4.9-.387a3.477,3.477,0,0,0,.951-2.572,5.24,5.24,0,0,0-1.13-2.752,9.833,9.833,0,0,1,9.349,0,5.24,5.24,0,0,0-1.13,2.752,3.455,3.455,0,0,0,.951,2.572c1.942,2.161,3.515,1.345,4.9.383a9.783,9.783,0,0,1,.439,2.324,6.99,6.99,0,0,0-4.766,2.193ZM40.456,19.21a6.621,6.621,0,0,0-1.7-2.784,6.147,6.147,0,0,0-4.311-1.773h-.2a7.11,7.11,0,0,0-3.9,1.5h0c-.13.09-.256.179-.382.269-1.471,1.04-2.137,1.516-3.421.09a2.067,2.067,0,0,1-.589-1.545,4.8,4.8,0,0,1,1.507-2.723.1.1,0,0,0,.028-.029A7.622,7.622,0,0,1,32.923,9.96,7.707,7.707,0,0,1,40.452,19.2Z" transform="translate(0 -8.55)" fill="#101010"/>
        </g>
      </g>
    </g>
  </g>
</svg>
