<svg xmlns="http://www.w3.org/2000/svg" width="42" height="42" viewBox="0 0 42 42">
  <g id="horoscopo_4" data-name="horoscopo 4" transform="translate(-241 -7061)" style="isolation: isolate">
    <rect id="Retângulo_4922" data-name="Retângulo 4922" width="42" height="42" transform="translate(241 7061)" fill="#101010" opacity="0"/>
    <g id="OBJECTS" transform="translate(247.108 7067.107)">
      <g id="Grupo_335" data-name="Grupo 335" transform="translate(0 0)">
        <path id="Caminho_611" data-name="Caminho 611" d="M39.169,26.979l-3.034.99-.437-.437,2.373-.774a.687.687,0,1,0-.425-1.307l-3.034.99L34.174,26l2.373-.774a.687.687,0,1,0-.425-1.307l-2.149.7,5.4-14.41.012-.048a.484.484,0,0,0,.02-.072c0-.024,0-.044.008-.068a.342.342,0,0,0,0-.064.187.187,0,0,0-.008-.068A.4.4,0,0,0,39.4,9.83a.394.394,0,0,0-.02-.064c-.008-.02-.012-.044-.02-.064a.437.437,0,0,0-.032-.06c-.012-.02-.02-.036-.032-.056a.4.4,0,0,0-.052-.064.22.22,0,0,0-.028-.036L37.545,7.814a15.953,15.953,0,0,0-22.026-.461L13.434,5.269l2.445-.136A.684.684,0,1,0,15.8,3.766l-3.976.22s-.032,0-.048.008a.309.309,0,0,0-.06.008.438.438,0,0,0-.068.02l-.056.02c-.024.012-.048.024-.068.036l-.044.024a.673.673,0,0,0-.184.184.437.437,0,0,0-.024.044.56.56,0,0,0-.036.068c-.008.016-.012.036-.02.056a.438.438,0,0,0-.02.068.309.309,0,0,0-.008.06c0,.016-.008.032-.008.048l-.22,3.976a.685.685,0,0,0,.645.722h.04a.689.689,0,0,0,.685-.649l.136-2.445,2.084,2.084a15.925,15.925,0,0,0,.473,22.03l1.664,1.664s0,.008.008.008a.768.768,0,0,0,.088.072s.012.008.016.012a.534.534,0,0,0,.16.076l.04.012a.858.858,0,0,0,.172.028h0a.653.653,0,0,0,.124-.012.181.181,0,0,0,.044-.012c.024-.008.048-.012.072-.02l14.4-5.4-.689,2.149a.685.685,0,0,0,.445.862.628.628,0,0,0,.208.032.685.685,0,0,0,.653-.477l.762-2.381.433.433-.978,3.05a.685.685,0,0,0,.445.862.628.628,0,0,0,.208.032.685.685,0,0,0,.653-.477l.762-2.381.433.433-.978,3.05a.685.685,0,0,0,.445.862.628.628,0,0,0,.208.032.685.685,0,0,0,.653-.477L36.242,30l.377.377a.686.686,0,0,0,.485.2.693.693,0,0,0,.485-.2.685.685,0,0,0,0-.97l-.365-.369,2.373-.774a.687.687,0,1,0-.425-1.307ZM26.286,4.535a14.611,14.611,0,0,1,5.283.986c-4.4-.665-9.139.93-13.164,4.714L16.489,8.319a14.517,14.517,0,0,1,9.8-3.784ZM11.727,19.086a14.451,14.451,0,0,1,3.792-9.8l1.916,1.916c-3.792,4.036-5.387,8.795-4.71,13.2a14.513,14.513,0,0,1-1-5.319Zm5.636,11.653C12.48,25.544,12.905,18.048,18.4,12.171l13.22,13.22Zm15.228-6.317L19.371,11.205a15.738,15.738,0,0,1,9.251-4.4,11.844,11.844,0,0,1,9.316,3.359L32.591,24.425Z" transform="translate(-10.36 -3.167)" fill="#101010"/>
      </g>
    </g>
  </g>
</svg>
