<svg xmlns="http://www.w3.org/2000/svg" width="42" height="42" viewBox="0 0 42 42">
  <g id="horoscopo_1" data-name="horoscopo 1" transform="translate(-160 -7056)" style="isolation: isolate">
    <rect id="Retângulo_4921" data-name="Retângulo 4921" width="42" height="42" transform="translate(160 7056)" fill="#101010" opacity="0"/>
    <g id="Grupo_332" data-name="Grupo 332" transform="translate(166 7060)">
      <path id="Caminho_591" data-name="Caminho 591" d="M15.7,21.053a.962.962,0,1,0-.962-.962A.96.96,0,0,0,15.7,21.053Z" transform="translate(-9.622 -13.237)" fill="#101010"/>
      <path id="Caminho_590" data-name="Caminho 590" d="M3.486,17.26a.577.577,0,0,0,.088.111,6.4,6.4,0,0,0,5.159,2.6H21.357c1.8,0,3.962-1.374,4.778-1.94l6.331,1.911a.766.766,0,0,0,.213.033.74.74,0,0,0,.536-.231.71.71,0,0,0,.142-.751,13.92,13.92,0,0,1,0-10.644.715.715,0,0,0-.155-.764.73.73,0,0,0-.77-.173l-6.18,2.208a6.436,6.436,0,0,0-4.9-2.253H21.1l.711-1.494a.71.71,0,0,0-.046-.689.733.733,0,0,0-.615-.334H11.838a.736.736,0,0,0-.661.413l-1,2.1H8.729a6.353,6.353,0,0,0-6.389,6.3A6.215,6.215,0,0,0,3.482,17.26ZM18.156,6.29h1.849l-.515,1.081H17.641l.515-1.081Zm-3.1,0h1.485L16.03,7.372H14.545Zm-2.757,0h1.151l-.515,1.081H11.788ZM8.733,8.808H21.357a4.969,4.969,0,0,1,4.046,2.08.73.73,0,0,0,.845.264l5.247-1.878c-.117.388-.213.772-.3,1.16l-3.661.986a.717.717,0,0,0-.51.883.727.727,0,0,0,.7.528.77.77,0,0,0,.192-.025l3.021-.813c-.042.384-.071.772-.088,1.156H27.725a.718.718,0,1,0,0,1.436h3.146c.025.4.067.8.121,1.205L27.9,15.032a.725.725,0,0,0-.883.524.717.717,0,0,0,.531.871l3.753.92c.067.268.138.541.222.809l-5.31-1.6a.735.735,0,0,0-.653.116c-.695.52-2.8,1.87-4.2,1.87H12.8a6.265,6.265,0,0,0,2.335-4.866.728.728,0,0,0-1.456,0A4.906,4.906,0,0,1,8.742,18.54a4.962,4.962,0,0,1-2.854-.9,4.554,4.554,0,0,0,2.586-.887,2.2,2.2,0,0,0,.766-1.7.728.728,0,0,0-1.456,0,.761.761,0,0,1-.272.623,4.891,4.891,0,0,1-2.971.541,4.782,4.782,0,0,1-.732-2.538A4.906,4.906,0,0,1,8.742,8.808Z" transform="translate(-2.339 -4.85)" fill="#101010"/>
      <path id="Caminho_592" data-name="Caminho 592" d="M33.693,18.9a.718.718,0,0,0,1.015-.017,2.089,2.089,0,0,0,.033-2.831.718.718,0,0,0-1.106.916.671.671,0,0,1,.037.916.714.714,0,0,0,.021,1.015Z" transform="translate(-20.433 -11.278)" fill="#101010"/>
      <path id="Caminho_593" data-name="Caminho 593" d="M34.183,32.2a.716.716,0,0,0,.516-.219,2.089,2.089,0,0,0,.033-2.831.718.718,0,0,0-1.106.916.671.671,0,0,1,.037.916.72.72,0,0,0,.52,1.217Z" transform="translate(-20.428 -18.819)" fill="#101010"/>
      <path id="Caminho_594" data-name="Caminho 594" d="M45.443,18.9a.718.718,0,0,0,1.015-.017,2.089,2.089,0,0,0,.033-2.831.718.718,0,0,0-1.106.916.671.671,0,0,1,.037.916.714.714,0,0,0,.021,1.015Z" transform="translate(-27.263 -11.278)" fill="#101010"/>
      <path id="Caminho_595" data-name="Caminho 595" d="M45.943,32.2a.716.716,0,0,0,.516-.219,2.089,2.089,0,0,0,.033-2.831.718.718,0,0,0-1.106.916.671.671,0,0,1,.037.916.72.72,0,0,0,.52,1.217Z" transform="translate(-27.263 -18.819)" fill="#101010"/>
      <path id="Caminho_596" data-name="Caminho 596" d="M39.113,25.816a.718.718,0,0,0,1.015-.017,2.089,2.089,0,0,0,.033-2.831.718.718,0,0,0-1.106.916.671.671,0,0,1,.037.916A.714.714,0,0,0,39.113,25.816Z" transform="translate(-23.584 -15.228)" fill="#101010"/>
      <path id="Caminho_597" data-name="Caminho 597" d="M50.873,25.816a.718.718,0,0,0,1.015-.017,2.089,2.089,0,0,0,.033-2.831.718.718,0,0,0-1.106.916.671.671,0,0,1,.037.916A.714.714,0,0,0,50.873,25.816Z" transform="translate(-30.419 -15.228)" fill="#101010"/>
      <path id="Caminho_598" data-name="Caminho 598" d="M27.017,51.708H25.573l-1-2.1a.731.731,0,0,0-.661-.413H14.594a.723.723,0,0,0-.615.334.71.71,0,0,0-.046.689l.711,1.494h-.255a6.436,6.436,0,0,0-4.9,2.253l-6.18-2.208a.739.739,0,0,0-.77.173.708.708,0,0,0-.155.764,13.92,13.92,0,0,1,0,10.644.718.718,0,0,0,.142.751.733.733,0,0,0,.536.231.64.64,0,0,0,.213-.033l6.331-1.911c.816.565,2.979,1.94,4.778,1.94H27.013a6.4,6.4,0,0,0,5.163-2.6.971.971,0,0,0,.08-.1A6.182,6.182,0,0,0,33.4,58.01a6.353,6.353,0,0,0-6.389-6.3Zm-3.569-1.081.515,1.081H22.812L22.3,50.626Zm-2.757,0,.515,1.081H19.72l-.515-1.081Zm-3.1,0,.515,1.081H16.259l-.515-1.081h1.849Zm13.624,9.917A4.861,4.861,0,0,1,28.247,60a.761.761,0,0,1-.272-.623.728.728,0,0,0-1.456,0,2.189,2.189,0,0,0,.766,1.7,4.575,4.575,0,0,0,2.586.887,4.962,4.962,0,0,1-2.854.9,4.906,4.906,0,0,1-4.933-4.866.728.728,0,0,0-1.456,0,6.252,6.252,0,0,0,2.335,4.866H14.4c-1.4,0-3.506-1.35-4.2-1.87a.74.74,0,0,0-.653-.116l-5.31,1.6c.084-.268.155-.541.222-.809l3.753-.92a.72.72,0,0,0,.531-.871.731.731,0,0,0-.883-.524l-3.092.759c.059-.4.1-.8.121-1.205H8.033a.718.718,0,1,0,0-1.436H4.908c-.013-.384-.042-.772-.088-1.156l3.021.813a.77.77,0,0,0,.192.025.727.727,0,0,0,.7-.528.719.719,0,0,0-.51-.883l-3.661-.986c-.084-.388-.184-.776-.3-1.16L9.51,55.484a.736.736,0,0,0,.845-.264A4.958,4.958,0,0,1,14.4,53.14H27.025a4.906,4.906,0,0,1,4.933,4.866,4.8,4.8,0,0,1-.732,2.538Z" transform="translate(-2.338 -30.429)" fill="#101010"/>
      <circle id="Elipse_31" data-name="Elipse 31" cx="0.962" cy="0.962" r="0.962" transform="translate(23.956 24.544)" fill="#101010"/>
      <path id="Caminho_599" data-name="Caminho 599" d="M42.721,61.278a.718.718,0,0,0-1.106-.916,2.089,2.089,0,0,0,.033,2.831.718.718,0,0,0,1.015.017.721.721,0,0,0,.021-1.015A.667.667,0,0,1,42.721,61.278Z" transform="translate(-24.85 -36.95)" fill="#101010"/>
      <path id="Caminho_600" data-name="Caminho 600" d="M42.721,74.387a.719.719,0,0,0-1.106-.92,2.089,2.089,0,0,0,.033,2.831.722.722,0,0,0,.516.219.7.7,0,0,0,.5-.2.721.721,0,0,0,.021-1.015.667.667,0,0,1,.037-.916Z" transform="translate(-24.85 -44.537)" fill="#101010"/>
      <path id="Caminho_601" data-name="Caminho 601" d="M30.961,61.278a.718.718,0,0,0-1.106-.916,2.089,2.089,0,0,0,.033,2.831.718.718,0,0,0,1.015.017.721.721,0,0,0,.021-1.015A.667.667,0,0,1,30.961,61.278Z" transform="translate(-18.015 -36.95)" fill="#101010"/>
      <path id="Caminho_602" data-name="Caminho 602" d="M30.961,74.387a.719.719,0,0,0-1.106-.92,2.089,2.089,0,0,0,.033,2.831.722.722,0,0,0,.516.219.7.7,0,0,0,.5-.2.721.721,0,0,0,.021-1.015.671.671,0,0,1,.037-.916Z" transform="translate(-18.015 -44.537)" fill="#101010"/>
      <path id="Caminho_603" data-name="Caminho 603" d="M37.291,68.208a.718.718,0,0,0-1.106-.916,2.089,2.089,0,0,0,.033,2.831.723.723,0,0,0,.516.219.7.7,0,0,0,.5-.2.721.721,0,0,0,.021-1.015A.671.671,0,0,1,37.291,68.208Z" transform="translate(-21.694 -40.908)" fill="#101010"/>
      <path id="Caminho_604" data-name="Caminho 604" d="M25.541,68.208a.718.718,0,0,0-1.106-.916,2.089,2.089,0,0,0,.033,2.831.722.722,0,0,0,.516.219.7.7,0,0,0,.5-.2.721.721,0,0,0,.021-1.015A.671.671,0,0,1,25.541,68.208Z" transform="translate(-14.995 -41.369)" fill="#101010"/>
    </g>
  </g>
</svg>
