<svg xmlns="http://www.w3.org/2000/svg" width="42" height="42" viewBox="0 0 42 42">
  <g id="horoscopo_9" data-name="horoscopo 9" transform="translate(-315 -6904)" style="isolation: isolate">
    <rect id="Retângulo_4915" data-name="Retângulo 4915" width="42" height="42" transform="translate(315 6904)" fill="#101010" opacity="0"/>
    <g id="OBJECTS" transform="translate(317 6908)">
      <g id="Grupo_323" data-name="Grupo 323" transform="translate(0 0)">
        <g id="Grupo_322" data-name="Grupo 322">
          <path id="Caminho_569" data-name="Caminho 569" d="M25.347.986a9.083,9.083,0,0,0-1.1.67.114.114,0,0,1-.026.019A8.921,8.921,0,0,0,20.509,8L17.64,9.858a2.674,2.674,0,0,0-3.562,3.659A8.177,8.177,0,0,0,8.127,21.58v6.367a.453.453,0,0,0,0,.071,5.26,5.26,0,0,1-.974,3.588,3.411,3.411,0,0,1-2.663,1.015H2.753A1.453,1.453,0,0,1,1.3,31.172v-.618a1.27,1.27,0,1,1,2.539,0,.652.652,0,0,0,1.3,0,2.573,2.573,0,1,0-5.146,0v.618a2.757,2.757,0,0,0,2.753,2.753H4.494a4.638,4.638,0,0,0,3.629-1.449,6.468,6.468,0,0,0,1.3-4.558V21.58A6.909,6.909,0,0,1,14.8,14.652l.858,1.326c-2.786.67-4.311,2.932-4.311,6.487a.652.652,0,0,0,1.3,0c0-3.138,1.27-4.921,3.768-5.311l1.528,2.356a4.347,4.347,0,0,0-3.5,4.258v4.805a5.332,5.332,0,0,0,1.861,4.049h-.9a2.767,2.767,0,0,1-2.764-2.764V28.179a.652.652,0,0,0-1.3,0v1.678a4.071,4.071,0,0,0,4.067,4.067h5.5a.872.872,0,0,0,.142-.015c2.786-.146,4.2-1.333,4.2-3.532v-.071a3.019,3.019,0,0,0-6.037,0,.652.652,0,1,0,1.3,0,1.715,1.715,0,0,1,3.431,0v.071c0,1.112-.416,2.247-3.509,2.247h-.64a4.053,4.053,0,0,1-4.049-4.049V23.771a3.044,3.044,0,0,1,2.989-3.037l.165.258a2.672,2.672,0,0,0,4.917-1.584l2.869-1.858a8.919,8.919,0,0,0,7.213-.757.6.6,0,0,0,.176-.109c.079-.049.157-.094.236-.142A8.989,8.989,0,0,0,36.688,3.7,9.024,9.024,0,0,0,25.344.993ZM22.493,19.813a1.354,1.354,0,0,1-.6.865h0a1.378,1.378,0,0,1-1.034.191,1.354,1.354,0,0,1-.865-.6l-4.344-6.708a.054.054,0,0,0-.007-.011l-.367-.566a1.375,1.375,0,0,1,2.307-1.5l4.719,7.284a1.375,1.375,0,0,1,.191,1.034Zm4.329-3.6a.646.646,0,0,0-.573.067l-2.828,1.831-2.386-3.682-2.359-3.644h0l-.022-.037,2.828-1.831a.652.652,0,0,0,.3-.5,7.647,7.647,0,0,1,2.768-5.352,36.912,36.912,0,0,1,8.3,12.808,7.629,7.629,0,0,1-6.022.333Zm10.164-5.816a7.61,7.61,0,0,1-3.011,4.79,38.19,38.19,0,0,0-8.34-12.872c.1-.06.2-.116.307-.172a7.717,7.717,0,0,1,9.7,2.318,7.622,7.622,0,0,1,1.345,5.932Z" transform="translate(0 -0.019)" fill="#101010"/>
          <path id="Caminho_570" data-name="Caminho 570" d="M7.73,64.451a.582.582,0,0,0,.581.581A1.325,1.325,0,0,1,9.7,66.426a.581.581,0,0,0,1.163,0A2.48,2.48,0,0,0,8.311,63.87a.582.582,0,0,0-.581.581Z" transform="translate(-4.208 -40.226)" fill="#101010"/>
          <path id="Caminho_571" data-name="Caminho 571" d="M45.49,67.751a.531.531,0,0,0,1.062,0,1.211,1.211,0,0,1,1.272-1.269.531.531,0,0,0,0-1.062A2.265,2.265,0,0,0,45.49,67.751Z" transform="translate(-28.325 -41.108)" fill="#101010"/>
        </g>
      </g>
    </g>
  </g>
</svg>
