<svg xmlns="http://www.w3.org/2000/svg" width="42" height="42" viewBox="0 0 42 42">
  <g id="horoscopo_2" data-name="horoscopo 2" transform="translate(-184 -6984)" style="isolation: isolate">
    <rect id="Retângulo_4920" data-name="Retângulo 4920" width="42" height="42" transform="translate(184 6984)" fill="#101010" opacity="0"/>
    <g id="OBJECTS" transform="translate(193 6988)">
      <g id="Grupo_330" data-name="Grupo 330" transform="translate(0 0)">
        <path id="Caminho_584" data-name="Caminho 584" d="M6.035,32.006c1.472,1.288,6.737,1.83,7.331,1.889h.066a.6.6,0,0,0,.114-.011.166.166,0,0,0,.041-.011.688.688,0,0,0,.081-.026l.041-.022a.686.686,0,0,0,.07-.041.719.719,0,0,0,.1-.089.446.446,0,0,0,.074-.111.131.131,0,0,0,.015-.033A.432.432,0,0,0,14,33.464l.011-.044a.364.364,0,0,0,.011-.089v-.044a.458.458,0,0,0-.011-.1v-.026c-.137-.583-1.372-5.73-2.845-7.017a3.884,3.884,0,0,0-4.73-.3,1.729,1.729,0,0,1,.221-1.088c.376-.612,1.417-1.336,4.187-1.424a5.44,5.44,0,0,0,3.97,4.634,1.557,1.557,0,0,0-.1.542.6.6,0,0,0,1.2,0,.347.347,0,1,1,.694,0,.6.6,0,0,0,1.2,0,1.557,1.557,0,0,0-.1-.542,5.445,5.445,0,0,0,3.97-4.638c2.966.048,4.058.8,4.449,1.428a1.729,1.729,0,0,1,.221,1.088,3.894,3.894,0,0,0-4.726.3c-1.472,1.288-2.708,6.434-2.845,7.017v.026a.458.458,0,0,0-.011.1v.044a.364.364,0,0,0,.011.089.2.2,0,0,0,.011.044.432.432,0,0,0,.033.089.131.131,0,0,0,.015.033.722.722,0,0,0,.074.111.547.547,0,0,0,.1.089.435.435,0,0,0,.07.041.22.22,0,0,0,.041.022.523.523,0,0,0,.081.026.166.166,0,0,0,.041.011.6.6,0,0,0,.114.011H19.4c.594-.059,5.862-.6,7.331-1.889a3.894,3.894,0,0,0,.6-5.195,3.138,3.138,0,0,0-.2-2.664c-.782-1.288-2.623-1.963-5.464-2.011-.007-.089-.015-.177-.026-.269,3.844-.387,5.46-2.151,5.53-2.228a.6.6,0,1,0-.889-.793c-.015.015-1.391,1.513-4.818,1.841-.059-.321-.133-.653-.214-1,3.785-.406,5.379-2.144,5.449-2.221a.6.6,0,0,0-.889-.793c-.015.015-1.406,1.527-4.87,1.845-.1-.328-.2-.66-.317-.989,3.892-.376,5.53-2.155,5.6-2.236a.6.6,0,1,0-.889-.793c-.015.015-1.479,1.609-5.15,1.871-.148-.35-.3-.69-.465-1.015,3.885-.376,5.523-2.155,5.593-2.236a.6.6,0,0,0-.889-.793c-.015.018-1.516,1.657-5.3,1.882-.018,0-.037.007-.052.007a6.751,6.751,0,0,0-.893-1.111c0-.026.007-.052.007-.077V9.83a3.1,3.1,0,0,0-2.94-3.2h-.041A2.992,2.992,0,0,1,12.163,3.96a2.721,2.721,0,0,1,2.723-2.774h4.136c1,0,1.664.207,1.867.583.269.494-.155,1.369-.325,1.631a.6.6,0,0,0,.5.922,2.166,2.166,0,0,0,2.155-2.376A2.219,2.219,0,0,0,21-.01H12.5A3.918,3.918,0,0,0,8.581,3.982,3.994,3.994,0,0,0,12.61,7.826a2.005,2.005,0,0,1,2,2v3.044a6.206,6.206,0,0,0-1.147,1.336h-.007c-3.723-.221-5.272-1.856-5.3-1.885a.6.6,0,0,0-.841-.048.592.592,0,0,0-.048.841c.07.077,1.693,1.845,5.541,2.232-.166.328-.321.668-.465,1.015-3.579-.269-5.08-1.845-5.106-1.871a.6.6,0,0,0-.889.8c.07.077,1.693,1.845,5.553,2.232-.114.328-.221.66-.317.989-3.372-.328-4.793-1.815-4.822-1.845a.6.6,0,0,0-.841-.048.592.592,0,0,0-.048.841c.07.077,1.649,1.8,5.4,2.217-.081.343-.155.679-.214,1a7.768,7.768,0,0,1-4.77-1.841.6.6,0,0,0-.841-.048.592.592,0,0,0-.048.841c.07.077,1.675,1.826,5.482,2.225-.011.1-.018.188-.026.28-2.7.081-4.446.756-5.2,2a3.152,3.152,0,0,0-.2,2.664A3.9,3.9,0,0,0,6.054,32Zm19.9-.9c-.657.572-2.808,1.055-4.741,1.354l3.542-3.1a.6.6,0,0,0-.786-.9l-3.542,3.1c.55-1.874,1.313-3.944,1.97-4.519a2.7,2.7,0,1,1,3.553,4.062ZM9.754,3.963A2.719,2.719,0,0,1,12.012,1.23a3.892,3.892,0,0,0-1.066,2.756,3.737,3.737,0,0,0,1.2,2.616A2.781,2.781,0,0,1,9.754,3.963Zm5.4,3.866a1.922,1.922,0,0,1,1.815,2v2.494a2.145,2.145,0,0,0-.727-.133,1.982,1.982,0,0,0-.465.059V9.837a3.191,3.191,0,0,0-.712-2.007c.03,0,.059,0,.089,0ZM12.108,21.492a.706.706,0,0,0,.026-.133v-.015a18.639,18.639,0,0,1,.446-2.014c0-.015.007-.026.011-.041.793-2.83,2.273-5.9,3.656-5.9,2.025,0,4.246,6.56,4.246,9.345a4.246,4.246,0,1,1-8.493,0,8.441,8.441,0,0,1,.107-1.24ZM6.57,27.3a2.684,2.684,0,0,1,1.852-.915c.063,0,.122-.007.184-.007a2.68,2.68,0,0,1,1.775.668c.657.576,1.42,2.645,1.97,4.519l-3.542-3.1a.6.6,0,0,0-.786.9l3.542,3.1c-1.93-.3-4.084-.782-4.741-1.354A2.7,2.7,0,0,1,6.57,27.3Z" transform="translate(-4.729 0.01)" fill="#101010"/>
      </g>
    </g>
  </g>
</svg>
