<svg xmlns="http://www.w3.org/2000/svg" width="42" height="42" viewBox="0 0 42 42">
  <g id="horoscopo_8" data-name="horoscopo 8" transform="translate(-309 -6980)" style="isolation: isolate">
    <rect id="Retângulo_4918" data-name="Retângulo 4918" width="42" height="42" transform="translate(309 6980)" fill="#101010" opacity="0"/>
    <g id="Grupo_339" data-name="Grupo 339" transform="translate(309 6986.529)">
      <path id="Caminho_614" data-name="Caminho 614" d="M38.077,29.6c-1.955-1.77-3.8-3.443-4.031-6.7-.356-5.015-2.82-13.432-15.36-13.432-3.809,0-6.374.753-7.844,2.311-1.627,1.724-1.5,3.97-1.41,5.616a5.408,5.408,0,0,1-.042,1.655,11.15,11.15,0,0,1-2.251,2.607c-1.738,1.7-3.7,3.619-3.7,5.736A5.7,5.7,0,0,0,5.592,31.4c.924.934,1.317,1.4,1.193,1.946-.032.148-.2.217-1.137.347-1.673.231-4.47.619-5.611,5.186a.979.979,0,0,0,1.9.476c.823-3.282,2.427-3.508,3.98-3.721,1.026-.143,2.431-.337,2.778-1.849.384-1.655-.73-2.778-1.71-3.767C6.17,29.2,5.4,28.421,5.4,27.394c0-1.29,1.655-2.907,3.115-4.336a11.639,11.639,0,0,0,2.695-3.272,5.924,5.924,0,0,0,.18-2.5c-.079-1.428-.171-3.051.878-4.16s3.222-1.7,6.42-1.7c10.4,0,13.03,6.314,13.4,11.606.287,4.044,2.612,6.157,4.668,8.019,2.3,2.085,4.118,3.73,2.9,7.779a.98.98,0,0,0,.656,1.22.992.992,0,0,0,.282.042.977.977,0,0,0,.938-.7c1.567-5.232-1.109-7.659-3.467-9.794Z" transform="translate(-0.008 -9.47)" fill="#101010"/>
      <path id="Caminho_615" data-name="Caminho 615" d="M38.953,42.171c-.927-.031-1.812-.076-2.637-.152a4.019,4.019,0,0,1,.18-3.507c2.024-3.525,1.224-5.007-.122-6.713-.171-.219-.355-.448-.531-.7a1.988,1.988,0,0,1-.31-.623c0-.022-.012-.045-.016-.067a2.909,2.909,0,0,1,.122-1.344c.359-1.509.482-2.992-1.906-4.523-3.747-2.4-3.886-5.124-3.89-5.227a.909.909,0,0,0-.865-.936c-6.114,0-8.694,4.479-9.049,8.312a11.577,11.577,0,0,0,.253,3.632,6.489,6.489,0,0,0-1.727,4.362,6.625,6.625,0,0,0,1.212,3.292c1,1.715,1.49,2.714.359,4.022-.869.09-1.812.134-2.8.17a.918.918,0,0,0-.837.981.907.907,0,0,0,.865.918h.029c3.6-.125,8.069-.282,9.078-3.905a1.056,1.056,0,0,0,.037-.278V38.059a10.865,10.865,0,0,0,1.771.578.818.818,0,0,0,.441-.027,9.854,9.854,0,0,0,1.171-.533v1.809a1.057,1.057,0,0,0,.037.278c1.008,3.623,5.482,3.78,9.078,3.905h.029a.907.907,0,0,0,.865-.918.918.918,0,0,0-.837-.981ZM24.663,39.73a3.2,3.2,0,0,1-2.424,1.886c.539-1.809-.416-3.462-1.118-4.658a5.31,5.31,0,0,1-.939-2.257,4.388,4.388,0,0,1,.665-2.306,10.737,10.737,0,0,0,3.816,4.725v2.616Zm3.616-3.014c-4.784-1.2-6.988-5.93-6.629-9.835a6.843,6.843,0,0,1,6.6-6.579,9.849,9.849,0,0,0,4.6,5.88c1.453.932,1.343,1.393,1.106,2.405a5.05,5.05,0,0,0-.163,2.127c-.788,3.762-4.588,5.6-5.522,6Zm3.233,3.014V36.993a10.366,10.366,0,0,0,3.425-4.116c.045.054.086.112.131.166,1,1.272,1.461,1.85-.033,4.456a5.823,5.823,0,0,0-.616,4.232c-1.473-.327-2.539-.909-2.9-2Z" transform="translate(-7.303 -13.438)" fill="#101010"/>
      <path id="Caminho_616" data-name="Caminho 616" d="M38.3,40.037a.59.59,0,0,0-.8-.211,2.945,2.945,0,0,1-2.734,0,.584.584,0,0,0-.8.222.59.59,0,0,0,.222.8,4.475,4.475,0,0,0,2.024.5,3.706,3.706,0,0,0,1.88-.5.583.583,0,0,0,.211-.8Z" transform="translate(-18.531 -25.88)" fill="#101010"/>
      <path id="Caminho_617" data-name="Caminho 617" d="M53.326,40.037a.59.59,0,0,0-.8-.211,2.945,2.945,0,0,1-2.734,0,.584.584,0,0,0-.8.222.59.59,0,0,0,.222.8,4.475,4.475,0,0,0,2.024.5,3.706,3.706,0,0,0,1.88-.5.583.583,0,0,0,.211-.8Z" transform="translate(-26.75 -25.88)" fill="#101010"/>
      <path id="Caminho_618" data-name="Caminho 618" d="M45.628,50.17h-3.2a.588.588,0,1,0,0,1.176h3.2a.588.588,0,1,0,0-1.176Z" transform="translate(-22.872 -31.482)" fill="#101010"/>
    </g>
  </g>
</svg>
