<svg xmlns="http://www.w3.org/2000/svg" width="42" height="42" viewBox="0 0 42 42">
  <g id="horoscopo_5" data-name="horoscopo 5" transform="translate(-247 -6983)" style="isolation: isolate">
    <rect id="Retângulo_4919" data-name="Retângulo 4919" width="42" height="42" transform="translate(247 6983)" fill="#101010" opacity="0"/>
    <g id="OBJECTS" transform="translate(253 6987)">
      <g id="Grupo_303" data-name="Grupo 303" transform="translate(0 0)">
        <g id="Grupo_301" data-name="Grupo 301">
          <path id="Caminho_557" data-name="Caminho 557" d="M31.915,41.016c-3.446-1.392-7.45-3.247-7.909-3.818a8.607,8.607,0,0,1-.74-3.347,12.563,12.563,0,0,0,5.207-5.886,3.793,3.793,0,0,0,3.18-2.571,2.236,2.236,0,0,0-.38-2.113,2.088,2.088,0,0,0-.3-.277c.947-2.095,3.377-8.756-1.938-12.316C23.933,7.274,19.845,8.9,18.46,9.65c-1.6-.843-6.858-2.889-13.234,2.24-7.1,5.718-2.963,15.078.6,19.707,2.421,3.147.281,8.122-.256,9.251-.133.054-.261.109-.394.159a.73.73,0,0,0-.419.984.851.851,0,0,0,1.07.381c2.317-.934,7.79-3.229,8.6-4.358a7.859,7.859,0,0,0,.937-3.26,21.15,21.15,0,0,0,2.288.907v6.027a.816.816,0,0,0,1.627,0V35.661a20.827,20.827,0,0,0,2.431-.975,8.012,8.012,0,0,0,.942,3.328c.818,1.129,6.291,3.424,8.6,4.358a.9.9,0,0,0,.325.063.824.824,0,0,0,.745-.444.723.723,0,0,0-.419-.984ZM30.071,25.068a1.775,1.775,0,0,1-1.026,1.152,11.3,11.3,0,0,0,.311-2.245h.015a1.059,1.059,0,0,1,.636.245A1.006,1.006,0,0,1,30.071,25.068ZM19.283,10.933c1-.571,4.344-2.018,8.8.966,4.433,2.966,2.179,8.843,1.376,10.584h-.044A11.7,11.7,0,0,1,19.278,15.35V10.933ZM13.091,37.2a27.453,27.453,0,0,1-5.4,2.771c.828-2.281,1.74-6.271-.532-9.223C3.9,26.523.064,18.039,6.3,13.024c5.734-4.616,10.167-2.743,11.36-2.081v4.4A11.84,11.84,0,0,1,7.524,22.483a2.652,2.652,0,0,0-1.864.807,2.233,2.233,0,0,0-.38,2.113,3.814,3.814,0,0,0,3.18,2.571,12.637,12.637,0,0,0,5.355,5.972,8.417,8.417,0,0,1-.735,3.256ZM7.894,26.22a1.775,1.775,0,0,1-1.026-1.152,1.014,1.014,0,0,1,.059-.843,1.011,1.011,0,0,1,.636-.249h.015a10.942,10.942,0,0,0,.311,2.245Zm1.938.957a.673.673,0,0,0-.094-.249,9.268,9.268,0,0,1-.547-3.152,13.253,13.253,0,0,0,8.471-5.283V30.242h-.572a.482.482,0,1,0,0,.961h.572v2.879c-4.847-1.769-6.937-4.594-7.825-6.906Zm9.452,6.906V31.2h.651a.482.482,0,1,0,0-.961h-.651V18.493a13.258,13.258,0,0,0,8.461,5.283c0,1.669-.6,7.428-8.461,10.307Z" transform="translate(-1.342 -8.53)" fill="#101010"/>
          <path id="Caminho_558" data-name="Caminho 558" d="M44.653,43.625a5.716,5.716,0,0,0-2.586-.645,4.734,4.734,0,0,0-2.4.645.745.745,0,0,0-.269,1.027.753.753,0,0,0,1.027.269,3.762,3.762,0,0,1,3.493,0,.746.746,0,0,0,1.02-.283.754.754,0,0,0-.283-1.027Z" transform="translate(-20.341 -28.07)" fill="#101010"/>
          <path id="Caminho_619" data-name="Caminho 619" d="M44.653,43.625a5.716,5.716,0,0,0-2.586-.645,4.734,4.734,0,0,0-2.4.645.745.745,0,0,0-.269,1.027.753.753,0,0,0,1.027.269,3.762,3.762,0,0,1,3.493,0,.746.746,0,0,0,1.02-.283.754.754,0,0,0-.283-1.027Z" transform="translate(-29.506 -28.07)" fill="#101010"/>
        </g>
      </g>
    </g>
  </g>
</svg>
