<svg xmlns="http://www.w3.org/2000/svg" width="42" height="42" viewBox="0 0 42 42">
  <g id="horoscopo_6" data-name="horoscopo 6" transform="translate(-245 -6905)" style="isolation: isolate">
    <rect id="Retângulo_4914" data-name="Retângulo 4914" width="42" height="42" transform="translate(245 6905)" fill="#101010" opacity="0"/>
    <g id="Grupo_337" data-name="Grupo 337" transform="translate(248 6909)">
      <path id="Caminho_612" data-name="Caminho 612" d="M7.625,12.735A7.929,7.929,0,0,0,4.632,16.8a.728.728,0,0,0,.615.945c.033,0,.243.025.581.025a8.685,8.685,0,0,0,3.964-.949v5.423a3.18,3.18,0,0,0,2.032,3.228c.293.167.59.343.9.56a3.382,3.382,0,0,0-.188,1.1A4.178,4.178,0,0,0,14.918,30.7v.719a3.27,3.27,0,0,0,6.539,0V30.7a4.183,4.183,0,0,0,2.383-3.558,4.1,4.1,0,0,0-.029-.456c.176-.142.347-.28.514-.41,1.213-.953,2.262-1.773,2.262-4.022v-2.91a2.506,2.506,0,0,0,.029-.435.677.677,0,0,0-.029-.184v-1.94a8.643,8.643,0,0,0,4.052.991,5.59,5.59,0,0,0,.581-.025.728.728,0,0,0,.615-.945,7.915,7.915,0,0,0-3.01-4.081,8.98,8.98,0,0,0,5.661-3.086c2.73-3.408,1.718-8.095,1.673-8.291a.724.724,0,0,0-1.43.159c0,5.477-8.776,5.553-8.864,5.553H10.519c-.088,0-8.864-.075-8.864-5.553a.724.724,0,0,0-1.43-.159C.179,1.541-.829,6.229,1.9,9.636a8.975,8.975,0,0,0,5.732,3.1ZM26.583,8.482c2.58-.13,6.247-.958,8.212-3.224a7.307,7.307,0,0,1-1.451,3.47c-1.38,1.723-3.654,2.655-6.761,2.772V8.482Zm0,4.633a7,7,0,0,1,3.475,3.178,6.645,6.645,0,0,1-3.475-1.25V13.115Zm-6.577,18.3a1.819,1.819,0,0,1-3.638,0v-.146a7.154,7.154,0,0,0,1.819.238,6.972,6.972,0,0,0,1.819-.238Zm1.451-2.446V27.6a.723.723,0,0,0-1.447,0v2.158a5.8,5.8,0,0,1-3.638,0V27.6a.723.723,0,0,0-1.447,0v1.363a2.437,2.437,0,0,1-.932-1.831,2.164,2.164,0,0,1,.251-.991c0-.008.008-.013.013-.021A4.416,4.416,0,0,1,18.2,24.2c2.316,0,4.2,1.313,4.2,2.923a2.437,2.437,0,0,1-.932,1.831Zm3.675-9.751a1.383,1.383,0,0,1-.38.69,1.53,1.53,0,0,1-1.066.439,1.555,1.555,0,0,1-1.083-.4,1.343,1.343,0,0,1-.439-.916,8.993,8.993,0,0,0,2.969-1.5v1.689ZM11.242,8.5h13.89v6.983c-.4.556-2.208,2.634-6.945,2.634s-6.51-2.162-6.945-2.8V8.5Zm0,8.906a8.914,8.914,0,0,0,3.019,1.6,1.447,1.447,0,0,1-1.493,1.33h-.029a1.557,1.557,0,0,1-1.066-.439,1.34,1.34,0,0,1-.41-.978.807.807,0,0,0-.021-.176V17.413Zm0,3.972a3.012,3.012,0,0,0,1.468.41h.059a2.919,2.919,0,0,0,2.914-2.438,14.168,14.168,0,0,0,2.5.213,15.291,15.291,0,0,0,2.555-.209,2.766,2.766,0,0,0,.882,1.652,2.987,2.987,0,0,0,2.028.782h.059a3,3,0,0,0,1.417-.38v.828c0,1.543-.569,1.99-1.706,2.881-.046.038-.1.079-.151.121a5.949,5.949,0,0,0-5.089-2.484,6.176,6.176,0,0,0-4.746,2.007c-.326-.222-.631-.4-.895-.552-.949-.544-1.3-.748-1.3-1.974v-.861ZM9.8,15.105A6.714,6.714,0,0,1,6.4,16.293,6.894,6.894,0,0,1,9.8,13.153Zm0-6.623V11.5c-3.107-.121-5.381-1.049-6.761-2.768A7.287,7.287,0,0,1,1.583,5.259C3.553,7.521,7.22,8.348,9.8,8.478Z" transform="translate(-0.005 -0.781)" fill="#101010"/>
      <path id="Caminho_613" data-name="Caminho 613" d="M32.729,27.65h2.714v2.57a.6.6,0,1,0,1.19,0V27.65h2.652a.6.6,0,1,0,0-1.19h-6.56a.6.6,0,1,0,0,1.19Z" transform="translate(-17.818 -15.794)" fill="#101010"/>
    </g>
  </g>
</svg>
