<svg xmlns="http://www.w3.org/2000/svg" width="42" height="42" viewBox="0 0 42 42">
  <g id="horoscopo_11" data-name="horoscopo 11" transform="translate(-396 -6984)" style="isolation: isolate">
    <rect id="Ret창ngulo_4917" data-name="Ret창ngulo 4917" width="42" height="42" transform="translate(396 6984)" fill="#101010" opacity="0"/>
    <path id="Uni찾o_1" data-name="Uni찾o 1" d="M9988.36-291a.829.829,0,0,1-.861-.791.829.829,0,0,1,.861-.791h8.051v-20.071h-6.7l3.956,7.846v.014c0,.011.007.023.012.034a.3.3,0,0,1,.022.061.415.415,0,0,1,.013.086.6.6,0,0,1,.008.084v.007a5.1,5.1,0,0,1-5.361,4.783A5.1,5.1,0,0,1,9983-304.52v-.007a.33.33,0,0,1,.008-.07v-.02l0-.025a.414.414,0,0,1,.01-.048l0-.011a.2.2,0,0,1,.017-.045v0c0-.014.009-.027.015-.043v-.009l.025-.052,4.552-9.035h.019l.041-.05.026-.027,0-.007.016-.014a1.009,1.009,0,0,1,.158-.118l.052-.032h.015c.04-.016.083-.034.13-.048l.01,0a.335.335,0,0,1,.065-.014,1.01,1.01,0,0,1,.191-.02h22.278a.839.839,0,0,1,.214.025.094.094,0,0,0,.023,0l.028.009a.993.993,0,0,1,.132.048h.01l.049.03a.638.638,0,0,1,.158.114.411.411,0,0,1,.059.061.7.7,0,0,1,.063.086l.078.045v.084l4.494,8.91v.014a.23.23,0,0,0,.011.034.245.245,0,0,1,.023.061.358.358,0,0,1,.013.086.613.613,0,0,1,.007.084v.007a5.1,5.1,0,0,1-5.36,4.783,5.1,5.1,0,0,1-5.359-4.783v-.007a.237.237,0,0,1,.008-.07v-.02l0-.025c0-.016,0-.032.008-.048l0-.011a.2.2,0,0,1,.017-.045h0v0c0-.014.009-.027.015-.043v-.009l.023-.052,3.933-7.8h-6.7v20.071h8.048a.83.83,0,0,1,.864.791.83.83,0,0,1-.864.791Zm9.774-1.585h2.737v-19.977h-2.737Zm12.506-8.735a3.574,3.574,0,0,0,3.526-2.41h-7.05A3.57,3.57,0,0,0,10010.641-301.318Zm-22.28,0a3.572,3.572,0,0,0,3.526-2.41h-7.05A3.57,3.57,0,0,0,9988.36-301.318Zm19.136-3.992h6.3l-3.15-6.245Zm-22.284,0h6.3l-3.148-6.248Zm5.9-17.147a.741.741,0,0,1-.705-.771.74.74,0,0,1,.705-.768h16.782a.74.74,0,0,1,.705.768.74.74,0,0,1-.705.771Z" transform="translate(-9584 7310.999)" fill="#101010"/>
  </g>
</svg>
