<svg xmlns="http://www.w3.org/2000/svg" width="42" height="42" viewBox="0 0 42 42">
  <g id="horoscopo_3" data-name="horoscopo 3" transform="translate(-170 -6905)" style="isolation: isolate">
    <rect id="Retângulo_4913" data-name="Retângulo 4913" width="42" height="42" transform="translate(170 6905)" fill="#101010" opacity="0"/>
    <g id="OBJECTS" transform="translate(171 6909)">
      <g id="Grupo_295" data-name="Grupo 295" transform="translate(0 0)">
        <path id="Caminho_538" data-name="Caminho 538" d="M38.748,23.487l-.3-.339c-1.2-1.353-1.7-1.914-2.765-2.2a5.99,5.99,0,0,0-2.933.353c-1.355.371-2.874.783-4.051.253.087-.149.169-.3.246-.453,3.335-.176,5.89-1.263,7.587-3.227a10.169,10.169,0,0,0,2.185-7.25.781.781,0,0,0-.862-.679.771.771,0,0,0-.684.855,8.782,8.782,0,0,1-1.829,6.078A8.43,8.43,0,0,1,29.6,19.5a9.894,9.894,0,0,0,.328-1.421,7.288,7.288,0,0,0,4.813-6.648h.009a.792.792,0,0,0,.547-.222.779.779,0,0,0,.233-.548,9.075,9.075,0,0,0-4.078-7.915A6.8,6.8,0,0,0,24.081.253a.772.772,0,0,0,.032,1.489,3.925,3.925,0,0,1,3.148,2.933h-.242l-5.05-3.159a.786.786,0,0,0-.716-.059A.771.771,0,0,0,20.792,2c-.639,2.833,2.276,5.965,2.4,6.1a.759.759,0,0,0,.242.172L30.066,11.3a.846.846,0,0,0,.255.063,3.241,3.241,0,0,1-2.3,2.249c-1.943-1.136-5.036-1.67-8.111-1.67a17.228,17.228,0,0,0-8.047,1.634,3.216,3.216,0,0,1-2.185-2.208.846.846,0,0,0,.255-.063l6.633-3.032a.759.759,0,0,0,.242-.172c.123-.131,3.038-3.263,2.4-6.1a.771.771,0,0,0-.461-.543.787.787,0,0,0-.716.059l-5.05,3.159h-.246a3.894,3.894,0,0,1,3.152-2.933A.772.772,0,0,0,15.92.257,6.813,6.813,0,0,0,8.552,2.742a9.08,9.08,0,0,0-4.078,7.915.753.753,0,0,0,.233.548.792.792,0,0,0,.547.222h.009a7.294,7.294,0,0,0,4.626,6.58,10.023,10.023,0,0,0,.333,1.475,8.337,8.337,0,0,1-5.557-2.6A8.751,8.751,0,0,1,2.836,10.8a.778.778,0,0,0-1.547-.176,10.2,10.2,0,0,0,2.185,7.25c1.67,1.928,4.161,3.009,7.4,3.218.091.176.187.348.287.52-1.159.434-2.6.045-3.905-.308a6.039,6.039,0,0,0-2.933-.353c-1.063.285-1.56.846-2.765,2.2l-.3.339a5.132,5.132,0,0,0-1.2,4.159.778.778,0,0,0,.762.625.847.847,0,0,0,.151-.014.775.775,0,0,0,.616-.905,3.676,3.676,0,0,1,.826-2.847l.306-.339c1.15-1.294,1.414-1.57,2-1.729a5.637,5.637,0,0,1,2.117.348c1.592.434,3.526.959,5.223.118.182.222.379.439.579.643a2.726,2.726,0,0,1-.858.525c-.484,0-3.166-.335-4.74-.548a.765.765,0,0,0-.7.272L2.215,28.754a.811.811,0,0,0-.169.358,5.627,5.627,0,0,0,.6,3.8.788.788,0,0,0,1.09.176.77.77,0,0,0,.178-1.077,3.958,3.958,0,0,1-.356-2.435l3.718-4.458c1.118.149,3.891.507,4.521.507a3.743,3.743,0,0,0,2.044-1.032,10.084,10.084,0,0,0,.858.575,3.873,3.873,0,0,1-1.3,1l-2.468.629a.772.772,0,0,0-.52.443l-.853,1.969a.763.763,0,0,0,.032.674l2,3.62a.775.775,0,0,0,.684.4.792.792,0,0,0,.374-.1.77.77,0,0,0,.31-1.05l-1.816-3.29.552-1.272,2.162-.552a1.032,1.032,0,0,0,.109-.036,5.389,5.389,0,0,0,2.153-1.742,10.182,10.182,0,0,0,3.814.742,10.386,10.386,0,0,0,3.955-.8,5.339,5.339,0,0,0,2.19,1.8,1.033,1.033,0,0,0,.109.036l2.162.552.552,1.272-1.816,3.29a.772.772,0,0,0,.31,1.05.792.792,0,0,0,.374.1.78.78,0,0,0,.684-.4l2-3.62a.763.763,0,0,0,.032-.674l-.853-1.969a.783.783,0,0,0-.52-.444l-2.468-.629a3.856,3.856,0,0,1-1.364-1.077c.287-.176.561-.367.83-.57a3.906,3.906,0,0,0,2.13,1.1c.63,0,3.4-.358,4.521-.507l3.718,4.458a4,4,0,0,1-.356,2.435.772.772,0,0,0,.634,1.222.791.791,0,0,0,.634-.321,5.627,5.627,0,0,0,.6-3.8.764.764,0,0,0-.169-.358L33.68,23.8a.77.77,0,0,0-.7-.272c-1.578.213-4.256.548-4.731.548a3.073,3.073,0,0,1-.972-.606c.192-.2.379-.412.557-.629,1.729.932,3.718.394,5.351-.05a5.637,5.637,0,0,1,2.117-.348c.589.158.853.434,2,1.729l.3.339a3.606,3.606,0,0,1,.826,2.851.771.771,0,0,0,.616.9.847.847,0,0,0,.151.014.774.774,0,0,0,.762-.625,5.159,5.159,0,0,0-1.186-4.163ZM24.232,6.928A8.694,8.694,0,0,1,22.343,3.57l4.028,2.516a.757.757,0,0,0,.406.118l1.328.018a.779.779,0,0,0,.785-.729,5.066,5.066,0,0,0-1.656-3.829,4.774,4.774,0,0,1,3.025,2.073.874.874,0,0,0,.278.253,7.423,7.423,0,0,1,3.4,5.874L30.564,9.82l-6.337-2.9Zm7.692,4.462,1.273.018a5.7,5.7,0,0,1-3.161,4.937,2.907,2.907,0,0,0-.652-1.616A4.791,4.791,0,0,0,31.923,11.39ZM9.464,4a.712.712,0,0,0,.278-.253,4.752,4.752,0,0,1,3.025-2.073A5.06,5.06,0,0,0,11.111,5.5a.792.792,0,0,0,.785.729l1.328-.018a.769.769,0,0,0,.406-.118l4.028-2.516a8.694,8.694,0,0,1-1.889,3.358l-6.337,2.9-3.376.045A7.352,7.352,0,0,1,9.46,4Zm.328,12.26A5.714,5.714,0,0,1,6.8,11.408l1.273-.018A4.785,4.785,0,0,0,10.5,14.662a2.931,2.931,0,0,0-.707,1.593Zm10.119,8.807a8.55,8.55,0,0,1-8.577-8.508c0-1.724,3.768-3.073,8.577-3.073a19.025,19.025,0,0,1,6.163.914c.9.33,2.413,1.05,2.413,2.159a8.55,8.55,0,0,1-8.577,8.508Z" transform="translate(-0.005 0.001)" fill="#101010"/>
      </g>
    </g>
  </g>
</svg>
