<svg xmlns="http://www.w3.org/2000/svg" width="44" height="44" viewBox="0 0 44 44">
  <g id="menu" transform="translate(-220.098 -891.056)">
    <rect id="Retângulo_51" data-name="Retângulo 51" width="44" height="44" rx="22" transform="translate(220.097 891.056)"/>
    <path id="menu-2" data-name="menu" d="M21,4.143a1.127,1.127,0,0,1-1.111,1.143H2.111A1.143,1.143,0,0,1,2.111,3H19.889A1.127,1.127,0,0,1,21,4.143ZM21,11a1.127,1.127,0,0,1-1.111,1.143H2.111a1.143,1.143,0,0,1,0-2.286H19.889A1.127,1.127,0,0,1,21,11Zm-1.111,8a1.143,1.143,0,0,0,0-2.286H2.111a1.143,1.143,0,0,0,0,2.286Z" transform="translate(231.097 902.056)" fill="#fff" fill-rule="evenodd"/>
  </g>
</svg>
