<svg id="webstories" xmlns="http://www.w3.org/2000/svg" width="10" height="14" viewBox="0 0 10 14">
  <path id="Caminho_653" data-name="Caminho 653" d="M14.26,5a1.4,1.4,0,0,1,1.391,1.411v9.172a1.4,1.4,0,0,1-1.391,1.411H9.391A1.4,1.4,0,0,1,8,15.583h5.133a1.388,1.388,0,0,0,.954-.268c.215-.208.173-.934.173-.934Z" transform="translate(-5.651 -2.994)" fill="#fff"/>
  <path id="Caminho_654" data-name="Caminho 654" d="M10.564,3.391H5A1.391,1.391,0,0,1,6.391,2h4.173a1.391,1.391,0,0,1,1.391,1.391v8.347a1.391,1.391,0,0,1-1.391,1.391Z" transform="translate(-5 -2)" fill="#fff"/>
  <path id="Caminho_655" data-name="Caminho 655" d="M6.391,11.738h5.564a1.391,1.391,0,0,1-1.391,1.391H6.391A1.391,1.391,0,0,1,5,11.738V3.391A1.391,1.391,0,0,1,6.391,2Z" transform="translate(-5 -2)" fill="#fff"/>
</svg>
